<?xml version="1.0" standalone="no"?>
<!DOCTYPE svg PUBLIC "-//W3C//DTD SVG 20010904//EN"
 "http://www.w3.org/TR/2001/REC-SVG-20010904/DTD/svg10.dtd">
<svg version="1.0" xmlns="http://www.w3.org/2000/svg"
 width="462.000000pt" height="430.000000pt" viewBox="0 0 462.000000 430.000000"
 preserveAspectRatio="xMidYMid meet">

<g transform="translate(0.000000,430.000000) scale(0.100000,-0.100000)"
fill="#000000" stroke="none">
<path d="M0 2150 l0 -2150 2310 0 2310 0 0 2150 0 2150 -2310 0 -2310 0 0
-2150z m778 1788 l2 -298 -300 0 -300 0 0 293 c0 162 3 297 7 300 4 4 137 6
297 5 l291 -3 3 -297z m326 296 c11 -4 16 -19 16 -45 0 -39 0 -39 39 -39 40 0
40 0 43 43 l3 42 125 0 125 0 3 -42 c3 -43 3 -43 42 -43 39 0 39 0 42 43 l3
42 83 3 82 3 0 -86 0 -85 -30 0 c-16 0 -33 0 -37 0 -5 -1 -10 16 -13 37 -5 37
-6 38 -45 38 -39 0 -40 -1 -43 -37 -3 -35 -5 -37 -40 -40 l-37 -3 -3 -81 -3
-82 -33 -4 c-19 -2 -39 -2 -45 0 -7 2 -11 46 -11 128 l0 124 -40 0 -40 0 0
-125 0 -125 -52 -1 c-29 -1 -66 -2 -83 -3 -28 -1 -30 2 -35 39 -5 39 -6 40
-47 43 l-43 3 0 -40 c0 -40 0 -40 43 -43 42 -3 42 -3 45 -45 l3 -42 -43 -3
c-43 -3 -43 -3 -43 -43 0 -37 2 -40 30 -42 17 0 36 -2 43 -2 7 -1 12 -16 12
-41 l0 -40 40 0 40 0 0 85 0 86 128 -3 127 -3 3 -82 3 -83 -46 0 -46 0 3 -82
3 -83 43 -3 42 -3 0 40 0 41 40 0 39 0 3 128 3 127 43 3 42 3 0 45 0 44 40 -2
c38 -1 39 -2 42 -42 3 -40 4 -41 45 -44 l42 -3 3 43 3 43 83 3 82 3 0 39 c0
39 0 39 -42 42 -42 3 -43 4 -48 43 -5 38 -7 40 -40 40 l-35 0 0 85 0 85 38 0
39 0 1 -83 2 -83 128 -2 127 -2 0 42 0 42 -42 3 c-42 3 -42 3 -43 43 l0 40
125 0 125 0 3 -43 3 -43 42 3 c42 3 42 3 43 43 l0 40 85 0 84 0 0 -40 c0 -40
0 -40 -43 -43 l-43 -3 3 -42 c3 -40 3 -41 43 -41 40 -1 40 -1 43 -43 l3 -43
-45 0 -46 0 0 45 0 46 -82 -3 -83 -3 -3 -42 -3 -42 43 -3 c42 -3 43 -4 46 -40
3 -31 7 -38 25 -39 12 -1 29 -2 37 -3 10 -1 16 -15 18 -44 l3 -43 42 3 c41 3
42 4 47 43 5 38 7 40 40 40 l35 1 5 84 5 85 43 3 c42 3 42 3 42 43 l0 39 -46
0 -45 0 3 43 c3 42 3 42 43 42 40 0 40 0 43 -43 l3 -42 167 2 167 3 5 40 5 40
120 0 120 0 5 -40 5 -40 127 -3 127 -3 3 43 c3 42 3 43 41 43 20 0 37 -3 37
-7 0 -5 0 -62 0 -128 l0 -120 -40 0 c-40 0 -40 0 -40 -39 0 -42 -15 -53 -64
-44 -24 5 -25 8 -28 87 l-3 81 -35 0 -35 0 -3 -127 -3 -128 40 0 40 0 3 -82 3
-83 42 -3 42 -3 3 43 c3 42 4 43 38 43 l35 0 5 -84 c3 -56 1 -85 -6 -88 -6 -2
-44 -3 -85 -1 l-74 3 -3 43 c-3 42 -3 42 -43 42 l-39 0 0 84 0 85 -42 3 c-42
3 -43 4 -48 43 l-5 40 -59 -3 c-92 -5 -106 1 -106 48 0 40 0 40 -40 40 l-40 0
0 -84 0 -85 -42 -3 -43 -3 -3 -82 -3 -83 -39 0 -40 0 0 -85 0 -85 40 0 40 0 0
40 0 40 130 0 129 0 3 87 c3 95 -1 89 63 84 12 -1 15 -18 15 -86 l0 -85 -40 0
c-40 0 -40 0 -40 -39 0 -40 0 -40 -42 -43 l-43 -3 -3 -127 -3 -128 -39 0 -39
0 -3 -82 -3 -83 -42 -3 c-43 -3 -43 -3 -43 -42 0 -38 -1 -39 -37 -42 -37 -3
-38 -4 -41 -45 l-3 -43 40 0 41 0 0 -40 0 -40 -40 0 -40 0 0 40 0 40 -45 0
-45 0 0 -40 0 -40 -40 0 -40 0 0 40 0 40 -45 0 -45 0 0 -40 0 -40 -170 0 -170
0 0 40 0 40 -84 0 -85 0 -3 -41 -3 -41 -80 0 -80 0 -3 40 -3 41 43 3 c45 3 43
-1 39 68 -1 16 -8 20 -41 20 l-40 0 0 41 0 40 -42 -3 c-42 -3 -43 -4 -44 -38
l0 -35 -128 -3 -127 -3 3 83 3 83 37 3 c37 3 37 3 40 -40 3 -43 3 -43 43 -43
39 0 40 1 45 40 l5 40 125 0 125 0 3 -82 3 -83 39 0 39 0 3 83 3 82 40 0 40 0
3 -82 3 -83 39 0 40 0 0 124 0 125 43 3 c39 3 42 5 44 33 0 17 2 36 2 43 1 7
16 12 41 12 l40 0 0 41 0 40 43 -3 c41 -3 42 -4 42 -38 l1 -35 84 -5 85 -5 3
-42 c3 -43 3 -43 42 -43 39 0 39 0 42 43 l3 42 83 3 82 3 0 -46 0 -45 45 0 46
0 -3 128 -3 127 -42 3 -42 3 -3 -43 c-3 -42 -4 -43 -40 -46 l-38 -3 0 45 0 46
-45 0 -45 0 0 39 c0 39 -1 40 -37 43 l-38 3 -3 81 -3 82 36 4 c20 2 38 2 40
-1 3 -2 5 -22 5 -43 l0 -38 45 0 45 0 0 130 0 130 40 0 40 0 0 40 0 40 46 0
45 0 -3 43 -3 42 -80 0 -80 0 -3 -82 c-2 -46 -6 -83 -10 -84 -76 -9 -82 -6
-82 42 0 39 0 39 -40 39 l-40 0 0 -40 0 -40 40 0 40 0 0 -45 0 -45 -39 0 c-39
0 -40 0 -43 41 -3 41 -4 41 -45 45 l-43 4 0 -131 0 -130 -42 3 c-41 3 -42 4
-43 38 0 34 -1 35 -43 38 l-43 3 3 -83 3 -83 43 -3 c43 -3 43 -3 40 -40 l-3
-37 -82 -3 -83 -3 0 -84 0 -85 -45 0 -45 0 0 40 c0 40 0 40 -40 40 l-39 0 -3
-82 -3 -83 -40 0 c-39 0 -40 1 -45 40 -5 38 -7 40 -42 43 -40 3 -39 5 -42 -58
-1 -22 -5 -25 -41 -25 -40 0 -40 0 -43 43 l-3 42 -45 0 c-41 0 -45 -2 -44 -22
5 -63 2 -68 -40 -68 l-40 0 0 45 0 45 40 0 40 0 0 124 0 125 43 3 c42 3 42 3
45 45 l3 42 -43 3 c-42 3 -43 4 -46 39 -3 39 -23 52 -62 42 -16 -4 -20 -14
-20 -45 l0 -39 -42 3 -43 3 -3 83 -3 82 -39 0 -40 0 0 -130 0 -130 85 0 86 0
-3 -82 -3 -83 -42 -3 c-43 -3 -43 -3 -43 -43 l0 -39 -125 0 -125 0 0 40 0 40
-45 0 -45 0 0 -124 0 -125 43 -3 c42 -3 42 -3 45 -45 3 -43 3 -43 43 -43 l39
0 0 -85 0 -85 -39 0 c-40 0 -40 0 -43 43 -3 42 -3 42 -43 42 -40 0 -40 0 -43
-42 -3 -43 -3 -43 -43 -43 l-40 0 3 43 c3 41 4 42 41 45 36 3 37 4 37 43 l0
39 -85 0 -85 0 0 -85 0 -85 -40 0 -40 0 0 86 0 85 -42 -3 -43 -3 -3 -82 -3
-83 -39 0 c-40 0 -40 0 -40 -40 l0 -40 -45 0 -45 0 0 40 c0 40 0 40 -39 40
-40 0 -40 0 -43 -42 -3 -41 -3 -41 -43 -41 -40 0 -40 0 -43 41 -3 42 -4 42
-42 42 -39 0 -39 0 -42 -42 l-3 -43 -40 1 c-40 1 -40 1 -43 42 -3 42 -3 42
-43 42 l-39 0 0 -85 0 -85 40 0 c40 0 40 0 40 -39 0 -43 -8 -49 -52 -43 -25 4
-28 8 -28 43 l0 39 -45 0 -46 0 3 -126 3 -126 80 0 80 0 3 86 3 86 44 0 45 0
0 40 0 40 170 0 170 0 0 -85 0 -85 40 0 40 0 0 -45 0 -45 -40 0 -41 0 3 -82 3
-83 65 -2 c36 -1 73 -2 83 -2 13 -1 17 -10 17 -41 l0 -40 40 0 40 0 0 -45 0
-45 45 0 45 0 0 45 0 45 40 0 40 0 0 40 0 40 45 0 44 0 3 -82 3 -83 83 -3 82
-3 0 -39 0 -40 -85 0 -85 0 0 -45 0 -45 40 0 40 0 0 -40 c0 -40 0 -40 -39 -40
-40 0 -40 0 -43 -42 -3 -43 -3 -43 -45 -46 -43 -3 -43 -3 -43 -43 l0 -39 84 0
85 0 3 38 c3 36 4 37 46 40 l42 3 0 -40 c0 -40 0 -40 -42 -43 -43 -3 -43 -3
-46 -46 l-3 -43 -82 3 -82 3 -3 43 c-3 43 -3 43 -40 40 l-37 -3 -3 -82 -3 -83
-44 0 -45 0 0 40 0 40 -85 0 -85 0 0 -39 c0 -40 0 -40 43 -43 42 -3 42 -3 45
-45 3 -43 3 -43 43 -43 l39 0 0 -126 0 -125 43 3 42 3 3 123 3 122 39 0 c39 0
39 0 42 43 l3 42 125 0 125 0 3 -42 c3 -43 3 -43 43 -43 l40 0 -3 -127 -3
-127 -35 0 c-34 -1 -35 -2 -38 -43 l-3 -43 40 0 41 0 0 45 0 45 45 0 45 0 0
40 c0 40 0 40 40 40 l39 0 3 83 3 82 42 3 c42 3 42 3 45 45 l3 42 165 0 165 0
3 -82 3 -83 -40 0 c-39 0 -40 1 -43 38 l-3 37 -82 3 -82 3 -3 -83 -3 -83 -42
-3 -43 -3 0 -85 0 -85 43 3 c29 2 42 8 43 18 1 8 2 27 2 43 2 25 5 27 42 27
l40 0 0 40 0 40 170 0 170 0 0 -86 0 -85 43 3 42 3 3 105 c4 142 1 150 -48
150 l-40 0 0 85 0 86 128 -3 127 -3 3 -82 3 -83 39 0 39 0 3 83 3 82 43 -1 42
-1 0 174 0 173 40 0 40 0 0 40 0 40 -40 0 -40 0 0 45 0 45 40 0 40 0 0 40 0
40 45 0 45 0 0 45 0 45 40 0 c40 0 40 0 40 40 l0 39 -82 3 -83 3 -3 128 -3
127 86 0 86 0 -3 43 c-3 36 -6 42 -25 43 -57 3 -54 -2 -51 87 l3 82 38 3 c36
3 37 4 37 43 0 39 0 39 -40 39 l-40 0 0 45 0 45 40 0 39 0 3 83 3 82 43 3 c42
3 42 3 42 43 l0 39 85 0 85 0 0 -40 0 -39 83 -3 82 -3 0 -40 c0 -39 -1 -40
-40 -45 -38 -5 -40 -7 -43 -42 -3 -37 -3 -37 40 -40 l43 -3 3 -167 2 -166 43
-4 42 -3 -4 43 -3 42 85 0 85 0 4 -40 4 -40 -76 0 c-86 0 -100 -8 -100 -57 l0
-33 -126 0 -125 0 3 -42 c3 -40 4 -42 38 -42 33 -1 35 -3 40 -41 5 -39 6 -40
47 -43 l42 -3 3 43 c3 42 4 43 38 43 33 0 35 -2 40 -40 5 -39 6 -40 47 -43
l42 -3 3 43 c2 29 8 43 18 44 8 1 25 2 37 3 18 1 22 8 25 39 3 36 4 37 45 40
l42 3 3 -43 c2 -36 6 -42 22 -40 10 2 29 1 42 -2 l23 -6 0 -208 -1 -207 86 -3
86 -3 0 -45 0 -45 38 3 c36 3 37 4 40 45 l3 42 -42 3 -42 3 -1 80 -1 80 -43 3
-43 3 3 41 c3 44 7 45 78 39 6 -1 10 -19 10 -41 l0 -40 40 0 40 0 0 84 0 85
-42 3 c-40 3 -42 4 -42 37 0 29 5 36 28 44 41 14 56 3 56 -42 0 -40 0 -40 43
-43 l42 -3 3 -82 3 -83 -46 0 -45 0 0 -84 0 -85 43 -3 42 -3 0 -125 0 -125
-42 -3 c-43 -3 -43 -3 -43 -42 0 -39 0 -39 43 -42 42 -3 42 -3 42 -43 0 -40 0
-40 -42 -43 l-43 -3 0 45 0 46 -39 0 c-40 0 -40 0 -43 -43 -3 -42 -3 -42 -45
-45 l-43 -3 0 -124 0 -124 43 -3 c42 -3 42 -3 45 -45 3 -43 3 -43 43 -43 l39
0 0 85 0 85 -40 0 -40 0 0 45 0 46 83 -3 82 -3 0 -210 0 -210 -82 -3 -82 -3
-3 43 c-3 43 -3 43 -43 43 -40 0 -40 0 -43 -42 l-3 -43 -44 0 -43 0 0 83 0 82
-41 3 -41 3 0 -85 0 -85 43 -3 c37 -3 42 -6 43 -28 2 -58 -1 -56 82 -57 42 -1
80 -2 85 -2 4 -1 7 -77 7 -171 l0 -170 85 0 86 0 -3 -82 -3 -83 -42 -3 c-43
-3 -43 -3 -43 -42 0 -39 0 -39 43 -42 l42 -3 3 -168 2 -167 -45 0 -45 0 0 40
0 40 -85 0 -85 0 0 130 0 131 -82 -3 -83 -3 -3 -42 -3 -43 43 0 43 0 -1 -73
c-1 -39 -2 -78 -3 -84 -1 -8 -16 -13 -41 -13 l-40 0 0 85 0 85 -45 0 -45 0 0
-85 0 -85 -85 0 -85 0 0 -40 0 -40 -255 0 -255 0 0 40 0 40 -40 0 -40 0 0 -40
0 -40 -85 0 -85 0 0 125 0 125 40 0 39 0 3 -82 3 -83 43 -3 42 -3 0 170 0 171
125 0 125 0 0 84 0 85 -37 3 c-36 3 -38 5 -43 43 l-5 40 -83 3 -83 3 3 -43 c3
-42 4 -43 41 -46 36 -3 37 -4 37 -43 l0 -39 -210 0 -210 0 0 39 c0 40 0 40
-42 43 l-43 3 -3 82 -3 83 -32 0 c-18 0 -36 4 -42 8 -5 4 -10 41 -10 82 l0 75
-40 5 c-39 5 -40 6 -43 47 -3 43 -3 43 -43 43 -39 0 -39 0 -39 -39 0 -42 -8
-49 -55 -47 -28 1 -30 4 -33 43 l-3 43 -84 0 -84 0 -3 -42 -3 -43 -120 -3
c-80 -2 -122 -7 -127 -15 -4 -7 -8 -45 -8 -85 l0 -73 161 2 c89 0 168 3 175 6
9 3 14 20 14 44 0 39 0 39 39 39 40 0 40 0 43 -42 3 -43 3 -43 43 -43 40 0 40
0 43 43 3 42 3 42 42 42 l39 0 3 -127 3 -128 40 -5 40 -5 0 -80 0 -80 -42 -3
c-43 -3 -43 -3 -43 -42 0 -39 0 -39 43 -42 42 -3 42 -3 42 -43 0 -40 0 -40
-42 -43 -43 -3 -43 -3 -43 -42 l0 -39 85 -3 85 -3 0 42 0 42 43 3 42 3 3 83 3
82 84 0 85 0 0 -39 c0 -40 0 -40 -42 -43 -43 -3 -43 -3 -46 -45 -3 -43 -3 -43
-43 -43 -39 0 -39 0 -39 -39 0 -40 0 -40 -42 -43 -43 -3 -43 -3 -46 -45 l-3
-43 -124 0 -124 0 -3 43 c-3 42 -3 42 -43 42 -40 0 -40 0 -43 -42 -3 -43 -3
-43 -43 -43 -39 0 -39 0 -39 -40 l0 -40 -130 0 -130 0 0 39 c0 40 0 40 -42 43
-43 3 -43 3 -46 46 l-3 42 -167 -2 -167 -3 0 -40 c0 -40 0 -40 43 -43 42 -3
42 -3 42 -43 l0 -39 -130 0 -130 0 0 39 c0 40 0 40 43 43 41 3 42 4 47 43 5
38 7 40 43 43 36 3 37 4 37 42 l0 40 -337 2 -338 3 -3 82 -3 82 83 3 83 3 3
43 3 42 -85 0 -86 0 0 85 0 85 45 0 45 0 0 124 c0 72 -4 126 -10 128 -5 2 -43
2 -85 0 l-75 -4 0 -39 c0 -39 0 -39 41 -39 l40 0 -3 -43 c-3 -41 -4 -42 -40
-45 -35 -3 -37 -5 -40 -40 -3 -36 -4 -37 -45 -40 l-43 -3 0 40 c0 40 0 40 43
43 42 3 42 3 45 46 l3 42 -86 0 -86 0 3 42 3 42 80 0 80 1 0 40 c0 40 0 40
-42 43 l-43 3 0 45 0 44 46 0 45 0 -3 38 c-3 36 -4 37 -45 40 l-42 3 -3 -42
c-3 -42 -4 -43 -38 -44 -33 0 -35 -2 -40 -40 -5 -39 -6 -40 -47 -43 -42 -3
-42 -3 -45 -45 -3 -41 -4 -42 -38 -42 -34 0 -35 1 -38 43 l-3 42 40 0 41 0 0
85 0 85 -40 0 c-40 0 -40 0 -40 -39 l0 -39 -81 -4 c-47 -2 -84 1 -87 7 -4 6
-7 24 -7 40 0 28 -3 30 -43 33 l-43 3 3 127 3 127 82 3 83 3 0 39 c0 40 0 40
-40 40 l-40 0 0 45 0 45 -45 0 -46 0 3 83 3 82 40 5 c38 5 40 7 43 42 3 37 3
37 -40 40 l-43 3 -3 167 -2 167 42 3 c43 3 43 3 46 46 3 42 3 42 43 42 39 0
39 0 39 40 0 22 -3 40 -7 41 -5 0 -42 1 -83 2 l-75 2 -3 42 -3 42 43 3 43 3 3
119 c3 131 1 136 -56 136 l-33 0 3 83 3 82 80 0 80 0 3 -42 3 -43 45 0 45 0
-3 83 -3 82 -127 3 -128 3 0 215 0 215 43 -3 42 -3 3 -167 2 -168 40 0 40 0 0
125 0 125 85 0 85 0 0 45 0 45 -40 0 -40 0 0 40 0 40 85 0 85 0 0 -40 0 -40
40 0 40 0 0 40 0 40 85 0 85 0 0 -40 0 -40 -85 0 -85 0 0 -45 0 -45 130 0 130
0 0 -40 c0 -40 0 -40 39 -40 40 0 40 0 43 -42 l3 -43 83 -3 82 -3 0 -39 0 -40
45 0 46 0 -3 83 -3 82 -82 3 -82 3 -3 82 -3 82 -42 3 -43 3 0 125 0 124 -40 0
-40 0 0 -40 0 -40 -45 0 -45 0 0 40 c0 25 5 40 13 41 6 1 26 2 42 3 l30 1 0
85 c0 91 3 86 -58 89 l-28 1 3 83 3 82 43 3 c42 3 42 3 42 43 0 39 0 39 40 39
40 0 40 0 40 38 0 21 3 42 7 45 8 9 46 9 67 1z m3251 -294 l0 -295 -297 -3
-298 -2 0 293 c0 162 3 297 7 300 4 4 137 6 297 5 l291 -3 0 -295z m-2725 0
c0 -22 -3 -40 -7 -41 -5 0 -19 -2 -33 -3 -39 -5 -50 4 -50 38 0 42 5 46 52 46
38 0 38 0 38 -40z m1528 -258 l3 -42 -40 0 c-41 0 -41 0 -41 39 0 41 11 51 55
46 16 -1 21 -10 23 -43z m1030 -174 c3 -35 5 -37 40 -40 36 -3 37 -4 40 -45 3
-42 3 -42 45 -45 41 -3 42 -4 42 -38 0 -34 -1 -35 -42 -38 l-43 -3 0 40 c0 40
0 40 -42 43 -41 3 -42 3 -42 43 -1 40 -1 40 -41 40 -39 0 -40 -1 -45 -40 -5
-38 -7 -40 -45 -45 -39 -5 -40 -6 -37 -42 l3 -38 -46 0 -45 0 0 -45 0 -45 40
0 c38 0 46 7 41 34 -1 6 0 20 4 33 5 23 9 24 88 21 l82 -3 3 -42 c3 -43 3 -43
42 -43 l39 0 3 -82 3 -83 40 -5 c38 -5 40 -7 43 -42 l3 -37 -83 -3 -83 -3 -3
-127 -3 -127 83 -3 83 -3 0 -80 0 -80 -82 -3 -83 -3 0 30 c0 50 -9 61 -51 61
l-39 0 0 -46 0 -45 -42 3 c-42 3 -43 4 -48 43 -3 22 -11 40 -17 41 -7 1 -24 2
-38 3 -22 1 -25 5 -25 41 l0 40 40 0 c25 0 40 5 41 13 1 6 2 19 3 27 3 33 -15
51 -47 48 -31 -3 -32 -2 -35 39 -3 42 -3 42 -45 45 -40 3 -42 5 -45 37 -4 39
9 51 56 51 l32 0 0 125 0 125 -45 0 -45 0 0 -85 0 -85 -40 0 -40 0 0 -126 0
-125 -42 3 -43 3 0 120 0 120 43 3 42 3 0 130 0 129 85 0 85 0 0 40 0 40 -170
0 -170 0 0 -39 c0 -40 0 -40 42 -43 41 -3 41 -3 41 -43 l0 -40 -84 0 -84 0 -3
82 -3 82 -82 3 -82 3 0 40 0 40 83 3 82 3 0 -46 0 -45 45 0 45 0 0 45 0 45
210 0 210 0 1 28 c1 15 1 33 0 40 -2 10 19 12 86 10 l88 -3 3 -37z m-1453 -83
l0 -40 -85 -3 -85 -3 0 46 0 46 85 -3 85 -3 0 -40z m-1105 -593 c0 -21 -2 -41
-4 -43 -3 -3 -23 -3 -45 -1 -39 4 -41 6 -41 36 0 42 5 46 52 46 37 0 38 -1 38
-38z m254 -2 c0 -32 -3 -35 -37 -41 -20 -3 -39 -4 -42 -1 -3 3 -5 23 -5 44 l0
39 42 -3 c40 -3 42 -4 42 -38z m2474 -1 c3 -36 3 -37 -38 -41 -23 -2 -43 -2
-46 1 -2 2 -4 22 -4 43 l0 39 43 -3 c41 -3 42 -4 45 -39z m-3243 -84 c0 -40 0
-40 -42 -43 l-43 -3 0 39 c0 48 5 54 50 50 34 -3 35 -4 35 -43z m170 -85 l0
-125 -83 -3 -83 -3 3 43 c3 42 4 43 41 46 l37 3 0 78 c0 43 3 81 7 85 4 4 23
6 43 4 l35 -3 0 -125z m173 43 l3 -83 39 0 40 0 0 -77 c0 -43 4 -83 8 -89 4
-5 23 -10 42 -10 l35 1 3 -127 3 -128 -46 0 -45 0 0 129 0 128 -37 -1 c-37 -1
-38 -2 -41 -44 l-3 -43 -42 3 -42 3 -3 200 c-1 110 0 205 3 213 3 9 18 12 42
10 l38 -3 3 -82z m914 -28 c110 -23 190 -67 273 -149 124 -123 181 -285 157
-450 -49 -338 -390 -548 -709 -437 -306 106 -448 449 -308 744 62 133 191 240
335 281 103 28 156 31 252 11z m-1084 -272 l3 -42 -43 -3 c-42 -3 -43 -4 -48
-43 -5 -38 -7 -40 -42 -43 -37 -3 -37 -3 -40 40 -3 43 -3 43 -45 46 -42 3 -43
4 -43 41 0 21 3 41 7 45 4 3 61 5 127 4 l121 -3 3 -42z m596 -940 l1 -43 -42
0 -43 0 0 38 c0 48 6 54 49 50 33 -3 34 -5 35 -45z m-1534 -468 l0 -85 86 0
85 0 -3 -42 c-3 -42 -4 -43 -40 -46 -35 -3 -37 -5 -40 -40 l-3 -37 -127 -3
-128 -3 0 41 c0 40 0 40 39 40 47 0 51 8 51 95 0 69 -6 78 -55 79 -28 1 -30 4
-33 44 l-3 42 85 0 86 0 0 -85z m4003 -4 c4 -1 7 -38 5 -83 l-3 -83 -40 0 -40
0 -3 74 c-4 94 -1 100 40 96 18 -2 37 -4 41 -4z m-3573 -636 l0 -295 -300 0
-300 0 0 295 0 295 300 0 300 0 0 -295z m335 -170 c0 -40 0 -40 -42 -43 -43
-3 -43 -3 -43 -43 0 -39 0 -39 -40 -39 l-40 0 0 40 0 40 40 0 c40 0 40 0 40
38 0 21 3 42 7 46 4 4 23 6 43 4 34 -3 35 -4 35 -43z m170 0 c0 -40 0 -40 -42
-43 -43 -3 -43 -3 -43 -43 0 -39 0 -39 -40 -39 l-40 0 0 40 0 40 40 0 c40 0
40 0 40 38 0 21 3 42 7 46 4 4 23 6 43 4 34 -3 35 -4 35 -43z m515 -85 l0 -40
-45 0 -45 0 0 40 0 40 45 0 45 0 0 -40z m1020 0 l0 -40 -40 0 -40 0 0 40 0 40
40 0 40 0 0 -40z"/>
<path d="M272 3938 l3 -213 205 0 205 0 3 213 2 212 -210 0 -210 0 2 -212z
m333 2 l0 -125 -127 -3 -128 -3 0 124 c0 68 3 127 7 131 4 3 61 5 127 4 l121
-3 0 -125z"/>
<path d="M1030 4110 l0 -40 46 0 46 0 -4 -45 -3 -45 43 0 43 0 -3 43 c-3 41
-4 42 -38 42 -34 1 -35 2 -38 43 l-3 42 -45 0 -44 0 0 -40z"/>
<path d="M2229 4118 c-1 -18 -1 -38 0 -44 1 -6 -16 -10 -41 -10 l-43 1 -3 -81
c-3 -89 3 -98 62 -87 24 5 25 8 28 87 l3 81 38 0 c37 0 37 0 37 43 l0 42 -40
0 c-38 0 -40 -1 -41 -32z"/>
<path d="M3167 4144 c-4 -4 -7 -22 -7 -41 0 -30 3 -33 29 -33 50 0 61 -9 61
-51 0 -39 0 -39 41 -39 l40 0 -3 43 c-3 42 -3 42 -40 41 -36 -1 -37 -1 -40 40
-3 39 -5 41 -38 44 -20 2 -39 0 -43 -4z"/>
<path d="M1970 3725 l0 -86 43 3 42 3 0 80 0 80 -43 3 -42 3 0 -86z"/>
<path d="M2142 3683 l3 -128 125 0 125 0 0 125 0 125 -128 3 -128 3 3 -128z
m151 38 c13 -1 17 -10 17 -41 l0 -40 -40 0 c-40 0 -40 0 -40 38 0 44 4 51 28
47 9 -2 25 -4 35 -4z"/>
<path d="M1290 3680 l0 -40 40 0 40 0 0 40 0 40 -40 0 -40 0 0 -40z"/>
<path d="M1540 3510 l0 -40 -40 0 -40 0 0 -45 0 -45 125 0 125 0 0 45 0 45
-40 0 -40 0 0 40 0 40 -45 0 -45 0 0 -40z"/>
<path d="M1977 3464 c-4 -4 -7 -43 -7 -86 l0 -78 43 0 42 0 -2 83 -2 82 -33 3
c-19 2 -37 0 -41 -4z"/>
<path d="M2144 3456 c-3 -8 -4 -27 -2 -43 3 -25 7 -28 46 -31 l44 -3 -4 43
c-3 42 -5 43 -41 46 -26 2 -39 -1 -43 -12z"/>
<path d="M520 3295 l0 -85 -40 0 -40 0 0 -85 0 -85 40 0 40 0 0 -40 0 -40 85
0 85 0 0 -45 0 -45 45 0 45 0 0 45 0 45 40 0 40 0 0 170 0 170 -85 0 -85 0 0
40 0 40 -85 0 -85 0 0 -85z m258 -127 l3 -38 -45 0 -46 0 0 41 0 40 43 -3 c41
-3 42 -4 45 -40z m-173 -83 c0 -40 0 -40 -42 -43 l-43 -3 0 39 c0 48 5 54 50
50 34 -3 35 -4 35 -43z m173 -87 l3 -38 -45 0 -46 0 0 41 0 40 43 -3 c41 -3
42 -4 45 -40z"/>
<path d="M950 3170 l0 -40 40 0 40 0 0 40 0 40 -40 0 -40 0 0 -40z"/>
<path d="M2650 3125 l0 -85 -42 0 -43 0 0 42 0 43 -40 0 c-40 0 -40 0 -43 -42
l-3 -42 43 -3 c42 -3 43 -4 43 -38 l0 -35 -125 -5 -125 -5 -3 -43 -3 -43 128
3 128 3 -1 43 -1 42 44 0 43 0 0 40 0 40 45 0 45 0 0 -85 0 -85 40 0 40 0 0
84 0 85 43 3 c42 3 42 3 45 46 3 42 3 42 43 42 39 0 39 0 39 40 l0 40 -40 0
c-40 0 -40 0 -40 -39 0 -40 0 -40 -42 -43 -43 -3 -43 -3 -46 -45 -3 -43 -3
-43 -43 -43 l-39 0 0 85 0 85 -45 0 -45 0 0 -85z"/>
<path d="M1120 3085 l0 -45 40 0 40 0 0 45 0 45 -40 0 -40 0 0 -45z"/>
<path d="M867 2954 c-4 -4 -7 -25 -7 -46 l0 -38 46 0 45 0 -3 43 c-3 40 -4 42
-38 45 -20 2 -39 0 -43 -4z"/>
<path d="M3257 2954 c-4 -4 -7 -25 -7 -46 l0 -39 83 3 82 3 0 40 0 40 -75 3
c-42 1 -79 0 -83 -4z"/>
<path d="M3343 2784 c-17 -7 -18 -161 -2 -166 6 -2 26 -2 45 0 32 4 34 6 34
43 0 39 0 39 41 39 l40 0 -3 43 -3 42 -70 2 c-38 1 -76 -1 -82 -3z"/>
<path d="M610 2575 l0 -45 125 0 125 0 0 -39 c0 -37 2 -39 34 -43 49 -6 56 -1
56 43 l0 39 -44 0 -45 0 -3 43 -3 42 -122 3 -123 3 0 -46z"/>
<path d="M3257 2613 c-4 -3 -7 -24 -7 -45 0 -38 0 -38 40 -38 l40 0 0 45 c0
44 0 45 -33 45 -19 0 -37 -3 -40 -7z"/>
<path d="M695 2442 c-3 -3 -5 -23 -5 -44 l0 -39 43 3 c41 3 42 4 45 41 3 30 0
37 -15 38 -10 1 -28 3 -40 4 -12 1 -25 0 -28 -3z"/>
<path d="M352 2318 c3 -43 3 -43 43 -43 l40 0 0 40 0 40 -43 3 -43 3 3 -43z"/>
<path d="M3167 2354 c-4 -4 -7 -25 -7 -46 0 -36 1 -38 33 -38 46 0 59 12 55
51 -3 31 -6 34 -38 37 -20 2 -39 0 -43 -4z"/>
<path d="M3337 2353 c-4 -3 -7 -41 -7 -84 l0 -78 43 -3 c41 -3 42 -4 47 -43 5
-38 7 -40 43 -43 36 -3 37 -4 37 -43 l0 -39 45 0 45 0 0 40 0 40 -46 0 -45 0
3 43 c3 42 3 42 46 45 42 3 42 3 42 42 0 39 0 39 -42 42 l-43 3 0 43 0 42 -81
0 c-44 0 -84 -3 -87 -7z"/>
<path d="M442 2188 l3 -83 35 0 35 0 3 83 3 82 -41 0 -41 0 3 -82z"/>
<path d="M610 2145 l0 -125 125 0 125 0 0 125 0 125 -125 0 -125 0 0 -125z
m165 0 l0 -40 -40 0 c-36 0 -40 2 -43 28 -6 47 4 59 45 55 37 -3 38 -4 38 -43z"/>
<path d="M3674 2257 c-2 -7 -3 -62 -2 -123 l3 -109 128 -3 127 -3 0 126 0 125
-125 0 c-95 0 -127 -3 -131 -13z m166 -113 l0 -45 -37 3 c-37 3 -38 4 -41 46
l-3 42 40 0 41 0 0 -46z"/>
<path d="M950 2144 l0 -45 38 3 c36 3 37 4 40 46 l3 42 -40 0 -41 0 0 -46z"/>
<path d="M3158 2148 c-3 -42 -4 -43 -41 -46 l-38 -3 3 -82 3 -82 37 -3 c37 -3
37 -3 40 40 3 43 3 43 46 46 l43 3 -3 82 -3 82 -42 3 -42 3 -3 -43z"/>
<path d="M1120 2061 c0 -40 0 -40 -42 -43 l-43 -3 0 -80 0 -80 40 -5 c39 -5
40 -6 43 -47 l3 -42 -43 -3 c-42 -3 -43 -4 -46 -40 l-3 -37 -82 -3 -82 -3 0
-40 0 -40 83 -3 82 -3 0 46 0 45 45 0 45 0 0 40 c0 40 0 40 39 40 40 0 40 0
43 43 3 41 4 42 43 47 38 5 40 7 43 43 l3 37 -85 0 -86 0 0 45 0 45 40 0 40 0
0 40 0 40 -40 0 c-40 0 -40 0 -40 -39z"/>
<path d="M1290 2060 l0 -40 40 0 40 0 0 40 0 40 -40 0 -40 0 0 -40z"/>
<path d="M270 1975 l0 -45 40 0 41 0 -3 -82 -3 -83 -37 -3 c-37 -3 -38 -4 -38
-42 0 -38 1 -39 38 -42 36 -3 37 -4 40 -45 l3 -43 85 0 84 0 0 -40 c0 -38 2
-40 29 -40 16 0 37 -3 46 -6 14 -6 16 0 13 37 -3 44 -3 44 -45 47 -42 3 -42 3
-45 45 -3 41 -4 42 -40 45 -37 3 -38 4 -38 42 0 38 1 39 38 42 l37 3 3 128 3
127 -126 0 -125 0 0 -45z"/>
<path d="M3337 2014 c-4 -4 -7 -25 -7 -46 0 -38 0 -38 -40 -38 l-40 0 0 -40
c0 -40 0 -40 39 -40 40 0 40 0 43 -42 3 -43 3 -43 46 -46 l42 -3 0 -85 0 -84
40 0 40 0 0 169 0 170 -37 3 c-36 3 -38 5 -43 43 -5 37 -7 40 -40 43 -20 2
-39 0 -43 -4z"/>
<path d="M690 1890 l0 -40 -40 0 -40 0 0 -45 0 -45 40 0 40 0 0 -40 0 -40 45
0 45 0 0 40 c0 40 0 40 39 40 40 0 40 0 43 43 3 42 3 42 46 45 l42 3 0 -45 0
-46 40 0 40 0 0 45 0 45 -40 0 -40 0 0 40 0 40 -130 0 -130 0 0 -40z m88 -87
l3 -43 -45 0 -46 0 0 46 0 45 43 -3 c42 -3 42 -3 45 -45z"/>
<path d="M1370 1890 l0 -40 -40 0 -40 0 0 -45 0 -45 40 0 40 0 0 45 0 45 45 0
45 0 0 40 0 40 -45 0 -45 0 0 -40z"/>
<path d="M3590 1805 l0 -125 39 0 c39 0 40 1 43 38 3 36 4 37 46 40 l42 3 0
-40 0 -41 123 0 c68 0 126 2 128 5 3 2 3 20 1 40 -4 33 -6 35 -44 35 l-39 0 3
43 c3 40 4 42 41 47 21 3 38 8 37 13 0 4 0 21 0 37 l0 30 -210 0 -210 0 0
-125z m250 0 l0 -45 -40 0 -40 0 0 45 0 45 40 0 40 0 0 -45z"/>
<path d="M2990 1678 l0 -173 -37 0 c-37 0 -38 -1 -41 -42 l-3 -43 40 0 41 0 0
-125 0 -125 45 0 45 0 0 125 0 125 -46 0 -45 0 3 43 3 42 80 0 80 0 5 -40 c5
-39 6 -40 45 -40 l40 0 0 40 0 40 -43 0 -42 0 0 88 0 87 45 0 45 0 0 -45 0
-45 40 0 40 0 0 45 0 45 -40 0 -40 0 0 40 0 40 -45 0 -45 0 0 45 0 45 -85 0
-85 0 0 -172z m170 42 l0 -40 -40 0 -40 0 0 40 0 40 40 0 40 0 0 -40z"/>
<path d="M4190 1806 l0 -46 41 0 40 0 -3 43 c-3 41 -4 42 -40 45 l-38 3 0 -45z"/>
<path d="M4018 1658 c-8 -53 2 -68 44 -68 l39 0 -3 43 c-3 41 -4 42 -40 45
-32 3 -37 0 -40 -20z"/>
<path d="M690 1548 l0 -43 -37 0 c-37 0 -38 -1 -41 -42 l-3 -43 40 0 41 0 0
-40 0 -40 45 0 45 0 0 40 0 40 85 0 85 0 0 -40 0 -40 40 0 40 0 0 40 c0 40 0
40 -39 40 -40 0 -40 0 -43 43 l-3 42 -80 0 -80 0 -3 -42 -3 -43 -45 0 -45 0 3
43 c3 42 3 42 46 45 43 3 43 3 40 40 -3 36 -4 37 -45 40 l-43 3 0 -43z"/>
<path d="M3760 1550 l0 -39 -82 -3 -83 -3 -3 -42 c-3 -42 -3 -42 -45 -45 -41
-3 -42 -4 -45 -40 -3 -37 -4 -38 -42 -38 l-39 0 -3 83 -3 82 -40 0 -40 0 -3
-82 -3 -83 46 0 45 0 0 -129 0 -130 -42 -3 -43 -3 -3 -82 -3 -83 -40 0 -40 0
3 128 3 127 38 3 c36 3 37 4 37 43 l0 39 -85 0 -85 0 0 -85 0 -85 -40 0 -41 0
3 -127 3 -128 35 0 c33 0 35 2 40 40 5 39 6 40 48 43 l42 3 0 -41 c0 -45 14
-56 55 -46 21 5 25 12 25 46 l0 40 46 0 45 0 -3 -42 c-3 -43 -3 -43 -45 -46
-43 -3 -43 -3 -43 -43 l0 -39 85 0 85 0 0 85 0 85 -40 0 -40 0 0 85 0 85 40 0
40 0 0 130 0 130 45 0 45 0 0 40 0 40 85 0 85 0 0 -44 c0 -39 -2 -44 -20 -39
-11 3 -31 2 -45 -1 -23 -6 -26 -11 -23 -44 3 -36 4 -37 46 -40 42 -3 42 -3 42
-43 0 -39 0 -39 40 -39 42 0 45 4 40 58 -1 20 3 22 45 22 l46 0 -3 43 c-3 42
-3 42 -43 42 -28 0 -40 -4 -41 -15 -1 -8 -2 -27 -2 -42 -2 -26 -5 -28 -43 -28
l-40 0 3 43 c3 41 4 42 41 45 36 3 37 4 37 43 0 39 0 39 -40 39 l-40 0 0 45 0
45 38 0 c21 0 41 2 43 5 3 2 3 20 1 40 -4 33 -6 35 -43 35 -39 0 -39 0 -39
-40z"/>
<path d="M270 1335 l0 -85 85 0 85 0 0 45 0 45 40 0 40 0 0 -46 0 -45 43 3
c42 3 42 3 42 43 0 40 0 40 -42 43 -43 3 -43 3 -43 43 l0 39 -125 0 -125 0 0
-85z"/>
<path d="M1370 1380 l0 -40 45 0 45 0 0 -85 0 -85 -85 0 -84 0 -3 -87 -3 -88
-42 -3 -43 -3 0 -125 0 -125 43 3 c41 3 42 4 45 39 3 34 6 37 38 41 19 2 37 2
39 -1 3 -2 5 -22 5 -43 0 -38 0 -38 -40 -38 l-40 0 0 -45 0 -45 -85 0 -85 0 0
-125 0 -125 40 0 c40 0 40 0 40 39 0 40 0 40 43 43 l42 3 3 83 3 82 39 0 c38
0 39 -1 42 -37 l3 -38 82 -3 82 -3 3 -82 3 -82 128 -3 127 -3 0 41 0 41 42 -3
c40 -3 42 -4 42 -38 1 -34 2 -35 43 -38 42 -3 42 -3 45 -45 3 -41 4 -42 43
-47 l40 -5 3 -82 3 -83 85 0 85 0 -3 43 c-3 42 -3 42 -45 45 -43 3 -43 3 -43
43 l0 39 170 0 170 0 0 45 0 45 -255 0 -255 0 0 39 c0 39 0 40 41 43 l42 3 -1
115 c-1 63 -2 121 -2 128 0 7 -15 12 -39 12 -40 0 -40 0 -43 -42 -3 -43 -3
-43 -45 -46 l-43 -3 0 85 0 85 -37 3 c-37 3 -38 4 -41 46 l-3 43 -42 -3 c-41
-3 -42 -4 -47 -43 -5 -38 -7 -40 -42 -43 -37 -3 -38 -4 -38 -43 l0 -39 -86 0
-85 0 3 43 3 42 38 -3 37 -4 0 46 0 46 45 0 45 0 0 40 c0 34 -3 40 -22 41 -13
1 -30 2 -38 3 -21 2 -30 -14 -30 -51 0 -32 -2 -33 -40 -33 l-40 0 0 130 0 130
85 0 85 0 0 39 c0 40 0 40 -42 43 -43 3 -43 3 -46 46 l-3 42 45 0 46 0 0 41 0
40 -42 -3 c-42 -3 -43 -4 -46 -40 -3 -37 -4 -38 -43 -38 -39 0 -39 0 -39 40
l0 40 -45 0 -45 0 0 -40z m432 -682 c3 -42 4 -43 41 -46 33 -3 37 -6 37 -30 0
-39 11 -50 50 -54 33 -3 35 -5 38 -46 l3 -43 -43 3 c-40 3 -43 5 -45 33 0 17
-2 36 -2 43 -1 7 -16 12 -41 12 l-40 0 0 -46 0 -45 -42 3 c-43 3 -43 3 -46 46
-3 42 -3 42 -43 42 l-39 0 0 85 0 85 84 0 85 0 3 -42z"/>
<path d="M2822 1298 l3 -43 40 0 40 0 0 40 0 40 -43 3 -43 3 3 -43z"/>
<path d="M4019 1330 c-1 -5 -1 -21 -1 -35 0 -43 1 -45 42 -45 l40 0 0 45 0 45
-40 0 c-22 0 -41 -4 -41 -10z"/>
<path d="M950 1211 c0 -40 0 -40 -42 -43 -43 -3 -43 -3 -43 -43 l0 -40 40 0
40 0 3 43 3 43 37 -3 c37 -3 37 -3 40 40 l3 42 -40 0 c-41 0 -41 0 -41 -39z"/>
<path d="M2650 1035 l0 -215 45 0 45 0 0 -85 0 -86 123 3 122 3 3 43 3 42 -40
0 c-41 0 -41 0 -41 39 0 39 1 40 38 43 36 3 37 4 40 46 l3 42 -41 0 -41 0 3
43 c3 41 4 42 38 42 34 0 35 1 38 43 l3 42 -40 0 c-40 0 -40 0 -43 43 -3 42
-3 42 -45 45 -43 3 -43 3 -43 43 l0 39 -85 0 -85 0 0 -215z"/>
<path d="M1127 1163 c-4 -3 -7 -23 -7 -44 0 -37 -1 -38 -42 -41 l-43 -3 0
-165 0 -165 43 -3 42 -3 0 125 c0 139 -6 126 60 130 12 1 16 19 18 89 l3 87
-34 0 c-18 0 -37 -3 -40 -7z"/>
<path d="M1800 1086 c0 -84 0 -86 24 -86 13 0 32 -3 41 -6 14 -6 15 4 13 82
l-3 88 -37 4 -38 3 0 -85z"/>
<path d="M3595 1162 c-8 -8 -6 -162 3 -163 4 -1 21 -2 37 -3 l30 -2 5 -84 5
-85 83 -3 82 -3 0 46 0 45 44 0 45 0 3 -42 c3 -41 5 -43 35 -43 17 0 35 -3 39
-8 4 -4 7 -41 7 -82 -1 -71 0 -75 22 -81 57 -14 60 -10 63 128 l3 127 -43 3
c-42 3 -43 4 -48 43 -5 38 -7 40 -40 40 -34 0 -35 1 -38 42 l-3 42 -127 3
-127 3 -3 38 c-2 20 -9 38 -15 38 -7 1 -22 3 -34 4 -12 1 -25 0 -28 -3z m241
-175 c5 -4 8 -43 5 -64 0 -8 -16 -13 -41 -13 -40 0 -40 0 -40 39 0 23 5 41 13
44 14 4 57 1 63 -6z"/>
<path d="M2142 613 l3 -128 125 0 125 0 3 128 3 127 -131 0 -131 0 3 -127z
m168 -3 c0 -40 0 -40 -38 -40 -21 0 -41 2 -43 5 -3 2 -3 20 -1 40 4 33 6 35
43 35 39 0 39 0 39 -40z"/>
<path d="M3677 734 c-10 -10 -8 -226 1 -242 7 -9 39 -12 128 -10 l119 3 0 125
0 125 -121 3 c-66 1 -123 -1 -127 -4z m165 -119 c2 -20 2 -38 -1 -40 -2 -3
-22 -5 -43 -5 -38 0 -38 0 -38 40 0 40 0 40 39 40 37 0 39 -2 43 -35z"/>
<path d="M3502 613 c3 -37 4 -38 46 -41 l42 -3 0 40 0 41 -46 0 -45 0 3 -37z"/>
<path d="M4107 564 c-4 -4 -7 -43 -7 -86 l0 -78 45 0 45 0 0 -85 0 -85 40 0
40 0 0 85 0 85 -40 0 -40 0 -1 70 c-1 39 -2 76 -3 83 -1 13 -67 22 -79 11z"/>
<path d="M1370 440 l0 -40 45 0 45 0 0 40 0 40 -45 0 -45 0 0 -40z"/>
<path d="M3330 440 l0 -40 130 0 130 0 0 40 0 40 -130 0 -130 0 0 -40z"/>
<path d="M3760 355 l0 -45 -85 0 -85 0 0 -40 0 -40 85 0 85 0 0 40 0 40 40 0
40 0 0 45 0 45 -40 0 -40 0 0 -45z"/>
<path d="M3160 225 l0 -85 86 0 85 0 -3 43 c-3 41 -4 42 -40 45 -37 3 -38 4
-38 43 l0 39 -45 0 -45 0 0 -85z"/>
<path d="M3420 225 l0 -85 40 0 40 0 0 85 0 85 -40 0 -40 0 0 -85z"/>
<path d="M3840 3940 l0 -209 33 -6 c17 -3 113 -5 212 -3 l180 3 3 213 2 212
-215 0 -215 0 0 -210z m345 0 l0 -125 -127 -3 -128 -3 0 124 c0 68 3 127 7
131 4 3 61 5 127 4 l121 -3 0 -125z"/>
<path d="M4100 3169 l0 -40 43 3 c41 3 42 4 45 41 l3 37 -45 0 -46 0 0 -41z"/>
<path d="M4018 3028 c-1 -7 -2 -24 -2 -38 -1 -22 -6 -25 -43 -28 l-43 -3 0
-44 0 -44 43 -3 42 -3 -2 -43 c-1 -35 2 -42 14 -38 8 3 28 6 44 6 l29 0 0 125
0 125 -40 0 c-24 0 -41 -5 -42 -12z"/>
<path d="M4014 2663 c2 -37 3 -38 44 -41 l42 -3 0 40 0 41 -44 0 -44 0 2 -37z"/>
<path d="M2145 2528 c-16 -6 -32 -13 -34 -15 -3 -2 35 -43 83 -92 48 -49 84
-91 79 -94 -4 -3 -31 -5 -58 -5 -28 0 -87 0 -132 -1 -81 -1 -83 -2 -83 -25 0
-31 25 -56 55 -56 22 0 23 -3 27 -102 5 -116 18 -153 70 -190 27 -19 45 -23
101 -22 l67 1 0 -53 c0 -46 4 -56 24 -69 14 -9 37 -15 53 -13 l28 3 3 222 2
222 38 3 c32 3 37 7 40 29 4 32 -24 62 -50 56 -38 -10 -74 15 -148 105 -65 78
-103 110 -128 107 -4 0 -20 -5 -37 -11z m173 -395 l-3 -108 -47 -3 c-66 -4
-78 16 -78 130 l0 88 65 0 66 0 -3 -107z"/>
<path d="M270 355 l0 -215 210 0 210 0 0 215 0 215 -210 0 -210 0 0 -215z
m340 0 l0 -125 -130 0 -130 0 0 125 0 125 130 0 130 0 0 -125z"/>
</g>
</svg>
